<?xml version="1.0" encoding="utf-8"?>
<!-- Generator: Adobe Illustrator 26.0.1, SVG Export Plug-In . SVG Version: 6.00 Build 0)  -->
<svg version="1.1" id="Layer_1" xmlns="http://www.w3.org/2000/svg" xmlns:xlink="http://www.w3.org/1999/xlink" x="0px" y="0px"
	 viewBox="0 0 100 100" style="enable-background:new 0 0 100 100;" xml:space="preserve">
<style type="text/css">
	.st0{fill:#FFFFFF;}
</style>
<g>
	<g>
		<path class="st0" d="M52.69,100c-9.44,0-18.35-4.99-23.91-13.42c-5.68-8.61-6.72-19.01-2.79-27.82
			C26.11,58.5,50.72,3.45,50.83,3.2L52.25,0l1.45,3.19c0.14,0.32,0.9,1.77,1.94,3.79c12.4,23.98,28.82,56.83,28.36,65.3
			c-0.43,7.85-4.49,15.59-10.88,20.7c-5.5,4.41-12.61,6.9-20.02,7.02C52.97,100,52.83,100,52.69,100z M52.35,7.47
			c-5.36,12.37-23.27,52.13-23.48,52.6c-3.49,7.8-2.54,17.07,2.55,24.78c4.97,7.53,12.9,12,21.27,12c0.12,0,0.25,0,0.37,0
			c6.71-0.11,13.14-2.35,18.1-6.33c5.69-4.56,9.32-11.45,9.7-18.41c0.31-5.69-9.11-27.12-28.01-63.67
			C52.66,8.08,52.5,7.76,52.35,7.47z M61.42,90.55c-0.58,0-1.14-0.32-1.41-0.87c-0.39-0.78-0.07-1.73,0.71-2.12
			c8.13-4.07,13.2-12.25,13.23-21.35c0-0.87,0.71-1.57,1.58-1.57c0,0,0,0,0,0c0.87,0,1.58,0.71,1.57,1.58
			c-0.03,10.3-5.76,19.56-14.97,24.17C61.9,90.5,61.66,90.55,61.42,90.55z"/>
	</g>
	<g>
		<path class="st0" d="M27.42,63.75l-1.56-0.73c-0.2-0.09-0.4-0.19-0.59-0.29c-8.34-4.23-11.69-14.47-7.46-22.81L32.6,10.79
			l9.99,18.42L28.85,59.97c-0.27,0.61-0.5,1.24-0.73,1.86L27.42,63.75z M32.69,17.58L20.63,41.35c-3.27,6.44-0.98,14.27,5.05,18
			c0.09-0.22,0.18-0.44,0.28-0.66l13.11-29.33L32.69,17.58z"/>
	</g>
</g>
</svg>
