<?xml version="1.0" encoding="utf-8"?>
<!-- Generator: Adobe Illustrator 26.0.1, SVG Export Plug-In . SVG Version: 6.00 Build 0)  -->
<svg version="1.1" id="Layer_1" xmlns="http://www.w3.org/2000/svg" xmlns:xlink="http://www.w3.org/1999/xlink" x="0px" y="0px"
	 viewBox="0 0 100 100" style="enable-background:new 0 0 100 100;" xml:space="preserve">
<style type="text/css">
	.st0{fill:#000;}
</style>
<g>
	<g>
		<path class="st0" d="M32.54,94.28c-4.5,0-9,0-13.5-0.01c-4.91,0-9.01-1.81-12.18-5.36c-1.99-2.23-3.24-4.87-3.71-7.85l-0.2-0.85
			l0.05-3.5l0.19-0.8c0.14-0.62,0.29-1.24,0.47-1.85C5.52,68.03,11,63.65,17.28,63.18c0.45-0.03,0.5-0.05,0.73-0.49
			c3.35-6.31,10.5-9.96,17.87-9.06c6.7,0.82,11.53,4.28,14.34,10.29c0.49,1.05,0.8,2.14,1.1,3.2c0.04,0.15,0.08,0.3,0.13,0.45
			c2.87,0.54,5.29,1.85,7.21,3.89c3.78,4.02,4.82,8.81,3.01,13.85c-1.8,5-5.63,8.06-11.08,8.83c-0.83,0.12-1.67,0.14-2.51,0.14
			C42.89,94.28,37.72,94.28,32.54,94.28z M6.22,79.95c0.08,0.24,0.13,0.42,0.16,0.61c0.37,2.35,1.36,4.42,2.92,6.18
			c2.56,2.86,5.75,4.26,9.74,4.26c9.68,0.01,19.35,0.01,29.02,0c0.69,0,1.38-0.02,2.05-0.11c4.29-0.61,7.06-2.8,8.46-6.69
			c1.39-3.86,0.61-7.39-2.31-10.49c-1.61-1.72-3.73-2.75-6.29-3.05l-1.05-0.12l-0.32-1.01c-0.16-0.51-0.3-1.02-0.45-1.52
			c-0.27-0.97-0.53-1.89-0.91-2.7c-2.3-4.92-6.26-7.75-11.77-8.42c-6.01-0.73-11.85,2.22-14.57,7.34c-0.75,1.42-1.8,2.11-3.38,2.23
			c-4.95,0.38-9.27,3.83-10.74,8.59c-0.16,0.53-0.29,1.07-0.41,1.61l-0.15,0.65V79.95z"/>
	</g>
	<g>
		<path class="st0" d="M76.78,46.52c-1.06,0-2.11,0-3.17,0l-19.37,0c-3.95,0-7.54-1.51-10.12-4.25c-2.57-2.73-3.85-6.38-3.62-10.29
			c0.36-5.89,5.08-11.09,10.98-12.11c0.04,0.12,0.07,0.02,0.14-0.27c1.65-6.96,6.15-11.54,13.04-13.25
			c6.84-1.7,13.04,0.13,17.94,5.28c0.89,0.94,1.53,2.01,2.16,3.05l0.41,0.67c7.89,0.37,14.43,6.82,14.82,14.72
			c0.4,8.15-5.39,15.14-13.47,16.26c-0.97,0.14-1.97,0.18-2.95,0.18C81.3,46.51,79.04,46.52,76.78,46.52z M69.27,43.23h4.35
			c3.3,0,6.62,0,9.93-0.01c0.84,0,1.68-0.03,2.51-0.15c6.38-0.89,10.96-6.41,10.65-12.85C96.4,24,91.24,18.92,84.95,18.66
			c-1.46-0.06-2.15-0.89-2.59-1.6l-0.43-0.7c-0.56-0.93-1.09-1.81-1.73-2.48c-4.09-4.31-9.06-5.78-14.76-4.35
			c-5.7,1.41-9.27,5.06-10.64,10.82c-0.29,1.23-0.83,2.42-2.77,2.75c-4.37,0.75-8,4.73-8.26,9.07c-0.18,3,0.79,5.79,2.73,7.85
			c1.95,2.08,4.7,3.22,7.74,3.22L69.27,43.23z"/>
	</g>
	<g>
		<g>
			<path class="st0" d="M71.76,82.6c-0.71,0-1.36-0.46-1.57-1.17c-0.37-1.25-0.7-2.52-1.03-3.79L65.5,63.81
				c-0.33-1.27-0.22-2.34,0.34-3.17c0.56-0.83,1.51-1.35,2.83-1.52l17.3-2.32c0.87-0.12,1.72,0.51,1.85,1.41
				c0.12,0.9-0.51,1.72-1.41,1.84l-17.3,2.32c-0.29,0.04-0.45,0.09-0.53,0.13c0.02,0.05,0.03,0.21,0.1,0.48l3.66,13.83
				c0.32,1.23,0.63,2.46,1,3.68c0.26,0.86-0.24,1.78-1.11,2.04C72.07,82.57,71.91,82.6,71.76,82.6z"/>
		</g>
		<g>
			<path class="st0" d="M82.59,90.99c-0.71,0-1.36-0.46-1.57-1.17c-0.37-1.25-0.7-2.52-1.03-3.79L76.33,72.2
				c-0.34-1.27-0.22-2.34,0.33-3.17c0.56-0.83,1.51-1.35,2.83-1.52l17.3-2.32c0.88-0.12,1.72,0.51,1.85,1.41
				c0.12,0.9-0.51,1.72-1.41,1.84l-17.3,2.32c-0.29,0.04-0.45,0.09-0.53,0.12c0.02,0.05,0.04,0.21,0.11,0.48l3.66,13.84
				c0.32,1.23,0.63,2.46,1,3.68c0.26,0.86-0.24,1.78-1.11,2.04C82.9,90.96,82.74,90.99,82.59,90.99z"/>
		</g>
	</g>
	<g>
		<g>
			<path class="st0" d="M28.51,46.52c-0.09,0-0.18,0-0.27-0.01l-17.44-0.7c-0.9-0.04-1.61-0.8-1.57-1.71
				c0.04-0.9,0.8-1.68,1.71-1.57l17.44,0.7c0.29,0,0.46-0.01,0.54-0.03c-0.01-0.05,0-0.21-0.02-0.49l-1.22-14.27
				c-0.1-1.26-0.2-2.52-0.35-3.78c-0.11-0.9,0.53-1.71,1.44-1.82c0.88-0.12,1.71,0.54,1.82,1.44c0.15,1.3,0.26,2.6,0.36,3.9
				l1.21,14.26c0.11,1.31-0.18,2.34-0.87,3.06C30.64,46.17,29.7,46.52,28.51,46.52z"/>
		</g>
		<g>
			<path class="st0" d="M19.29,36.38c-0.09,0-0.18,0-0.27-0.01l-17.45-0.7c-0.9-0.04-1.61-0.8-1.57-1.71
				c0.04-0.9,0.79-1.68,1.71-1.57l17.44,0.7c0.29,0.01,0.46-0.01,0.54-0.03c-0.01-0.05,0-0.21-0.02-0.49L18.46,18.3
				c-0.1-1.26-0.2-2.52-0.35-3.78c-0.11-0.9,0.54-1.71,1.44-1.82c0.88-0.11,1.71,0.54,1.82,1.44c0.15,1.3,0.26,2.6,0.36,3.9
				l1.21,14.26c0.11,1.31-0.18,2.34-0.87,3.06C21.42,36.04,20.48,36.38,19.29,36.38z"/>
		</g>
	</g>
</g>
</svg>
